solid ASCII
  facet normal 0.000000e+00 0.000000e+00 -1.000000e+00
    outer loop
      vertex   4.000000e+01 0.000000e+00 -6.000000e+01
      vertex   -4.000000e+01 0.000000e+00 -6.000000e+01
      vertex   4.000000e+01 1.000000e+00 -6.000000e+01
    endloop
  endfacet
  facet normal -0.000000e+00 0.000000e+00 -1.000000e+00
    outer loop
      vertex   4.000000e+01 1.000000e+00 -6.000000e+01
      vertex   -4.000000e+01 0.000000e+00 -6.000000e+01
      vertex   -4.000000e+01 1.000000e+00 -6.000000e+01
    endloop
  endfacet
  facet normal 1.000000e+00 2.524355e-30 -3.552714e-16
    outer loop
      vertex   4.000000e+01 0.000000e+00 6.000000e+01
      vertex   4.000000e+01 0.000000e+00 -6.000000e+01
      vertex   4.000000e+01 1.000000e+00 6.000000e+01
    endloop
  endfacet
  facet normal 1.000000e+00 0.000000e+00 -3.552714e-16
    outer loop
      vertex   4.000000e+01 1.000000e+00 6.000000e+01
      vertex   4.000000e+01 0.000000e+00 -6.000000e+01
      vertex   4.000000e+01 1.000000e+00 -6.000000e+01
    endloop
  endfacet
  facet normal 8.881784e-17 -0.000000e+00 1.000000e+00
    outer loop
      vertex   -4.000000e+01 0.000000e+00 6.000000e+01
      vertex   4.000000e+01 0.000000e+00 6.000000e+01
      vertex   -4.000000e+01 1.000000e+00 6.000000e+01
    endloop
  endfacet
  facet normal 0.000000e+00 -7.105427e-15 1.000000e+00
    outer loop
      vertex   -4.000000e+01 1.000000e+00 6.000000e+01
      vertex   4.000000e+01 0.000000e+00 6.000000e+01
      vertex   4.000000e+01 1.000000e+00 6.000000e+01
    endloop
  endfacet
  facet normal -1.000000e+00 0.000000e+00 1.184238e-16
    outer loop
      vertex   -4.000000e+01 0.000000e+00 -6.000000e+01
      vertex   -4.000000e+01 0.000000e+00 6.000000e+01
      vertex   -4.000000e+01 1.000000e+00 -6.000000e+01
    endloop
  endfacet
  facet normal -1.000000e+00 0.000000e+00 1.184238e-16
    outer loop
      vertex   -4.000000e+01 1.000000e+00 -6.000000e+01
      vertex   -4.000000e+01 0.000000e+00 6.000000e+01
      vertex   -4.000000e+01 1.000000e+00 6.000000e+01
    endloop
  endfacet
  facet normal 0.000000e+00 1.000000e+00 0.000000e+00
    outer loop
      vertex   -4.000000e+01 1.000000e+00 -6.000000e+01
      vertex   -4.000000e+01 1.000000e+00 6.000000e+01
      vertex   4.000000e+01 1.000000e+00 -6.000000e+01
    endloop
  endfacet
  facet normal 0.000000e+00 1.000000e+00 -0.000000e+00
    outer loop
      vertex   4.000000e+01 1.000000e+00 -6.000000e+01
      vertex   -4.000000e+01 1.000000e+00 6.000000e+01
      vertex   4.000000e+01 1.000000e+00 6.000000e+01
    endloop
  endfacet
  facet normal 0.000000e+00 -1.000000e+00 -0.000000e+00
    outer loop
      vertex   -4.000000e+01 0.000000e+00 6.000000e+01
      vertex   -4.000000e+01 0.000000e+00 -6.000000e+01
      vertex   4.000000e+01 0.000000e+00 6.000000e+01
    endloop
  endfacet
  facet normal 0.000000e+00 -1.000000e+00 0.000000e+00
    outer loop
      vertex   4.000000e+01 0.000000e+00 6.000000e+01
      vertex   -4.000000e+01 0.000000e+00 -6.000000e+01
      vertex   4.000000e+01 0.000000e+00 -6.000000e+01
    endloop
  endfacet
endsolid
